<?xml version="1.0" encoding="utf-8"?>
<!-- Generator: Adobe Illustrator 25.0.1, SVG Export Plug-In . SVG Version: 6.00 Build 0)  -->
<svg version="1.1" id="Layer_1" xmlns="http://www.w3.org/2000/svg" xmlns:xlink="http://www.w3.org/1999/xlink" x="0px" y="0px"
	 viewBox="0 0 209.2 124.5" style="enable-background:new 0 0 209.2 124.5;" xml:space="preserve">
<style type="text/css">
	.st0{opacity:0.5;}
	.st1{fill:#FC5185;}
</style>
<g id="Layer_2_1_">
	<g class="st0">
		<g id="Layer_2-2">
			<path d="M2.6,30.1h15.7c9.3,0,14,3.7,14,11c0,3.6-1.8,7-4.8,9.1c4.6,2,7,5.6,7,10.8c0.2,3.6-1.4,7.1-4.1,9.4
				c-1.2,1.1-2.7,1.9-4.3,2.3c-2,0.5-4.1,0.7-6.1,0.7h-2.5V62.3h2.2c0.9,0.1,1.9-0.1,2.7-0.5c0.6-0.4,0.9-1.1,0.8-1.7
				c0-1.4-1.1-2.1-3.2-2.1h-2.5V46.4c2.4,0,3.6-0.8,3.6-2.4s-1.1-2.3-3.2-2.3h-2.4v31.7H2.6V30.1z"/>
			<path d="M58.5,41.5v12.7c-0.7-0.4-1.5-0.7-2.2-0.7c-2.2,0-3.2,1.7-3.2,5v15H41.1V56.1c0-4.6,1.2-8.2,3.8-10.9
				c2.6-2.8,6.2-4.2,10-4.1C56.1,41.1,57.3,41.2,58.5,41.5z"/>
			<path d="M81.8,61.5v12.3c-0.9,0.2-1.8,0.2-2.7,0.3c-4.4,0.1-8.7-1.6-11.9-4.7c-3.2-3.1-4.9-7.4-4.8-11.8
				c0-9.1,7.3-16.4,16.3-16.5c0.1,0,0.1,0,0.2,0c5.1,0,9.2,1.5,12.1,4.5s4.4,7.1,4.4,12.3v15.5H83.7V58.8c0.1-1.4-0.4-2.9-1.2-4
				c-0.8-1-2-1.5-3.3-1.5c-2.5,0-4.6,2.1-4.6,4.6c0,1.2,0.4,2.4,1.2,3.2c0.8,0.8,2,1.3,3.1,1.3C80,62.4,81,62.1,81.8,61.5z"/>
			<path d="M116.6,41.8v31.6h-11.9V41.8H116.6z"/>
			<path d="M154.1,73.4h-11.9V55.5c0-1.8-0.8-2.7-2.2-2.7s-2.2,0.9-2.2,2.7v17.9h-11.9V55.8c-0.1-3.9,1.4-7.6,4.1-10.4
				c5.5-5.6,14.6-5.7,20.2-0.1c0.3,0.3,0.5,0.5,0.8,0.8c2.1,2.6,3.2,6.1,3.2,10.7L154.1,73.4z"/>
			<path d="M31.9,102.2l13.5,0.3c-0.9,7-3.3,12.4-7.2,16.2s-9.1,5.7-15.5,5.7c-6.1,0.2-11.9-2.2-16.2-6.5
				c-4.3-4.2-6.7-10.1-6.5-16.1c-0.1-6.1,2.3-12,6.7-16.3C11,81.3,16.9,78.9,23,79c6-0.2,11.8,2.2,16,6.5c3,3,5.1,7.2,6.3,12.5
				l-13.8,0.9c-1.5-4.7-4.5-7.1-8.8-7.1c-2.6-0.1-5.1,1-6.8,2.8c-1.8,2-2.8,4.6-2.7,7.3c-0.1,2.6,0.9,5.1,2.6,7
				c1.7,1.8,4.1,2.8,6.7,2.8c2.4,0.1,4.8-0.8,6.5-2.4C30.8,107.3,31.8,104.8,31.9,102.2z"/>
			<path d="M67.9,91.1c4.4-0.1,8.5,1.7,11.5,4.8c6.4,6.4,6.4,16.8,0,23.2c0,0,0,0,0,0c-6.5,6.4-17,6.4-23.5,0
				c-6.4-6.3-6.5-16.7-0.2-23.2c0.1-0.1,0.1-0.1,0.2-0.2C59.1,92.7,63.4,91,67.9,91.1z M67.6,102.8c-1.2,0-2.4,0.5-3.2,1.4
				c-1.8,1.9-1.8,4.9,0,6.8c0.8,0.9,2,1.4,3.2,1.4c1.2,0,2.4-0.5,3.3-1.4c1.8-1.9,1.8-4.9,0-6.8C70,103.3,68.8,102.8,67.6,102.8z"/>
			<path d="M91.5,92.2h11.9v17.9c0,1.8,0.8,2.7,2.2,2.7c1.5,0,2.2-0.9,2.2-2.7V92.2h11.9v17.7c0.1,3.9-1.4,7.6-4.1,10.4
				c-5.5,5.6-14.6,5.7-20.2,0.1c-0.3-0.3-0.5-0.5-0.8-0.8c-2.1-2.6-3.2-6.1-3.2-10.7V92.2z"/>
			<path d="M146.2,91.4v12.7c-0.7-0.4-1.5-0.7-2.2-0.7c-2.2,0-3.2,1.7-3.2,5v15h-11.9v-17.3c0-4.6,1.2-8.2,3.8-10.9
				c2.6-2.8,6.2-4.2,10-4.1C143.8,91.2,145.1,91.3,146.2,91.4z"/>
			<path d="M171.9,92.2v12.5c-1.7,0-2.8,0.3-3.4,0.9c-0.8,1.1-1.2,2.4-1.2,3.7c-0.6,6.1-2.9,10.4-7.1,13c-2.2,1.3-5.4,2-9.5,2H149
				v-12.7h0.5c1.5,0.1,2.9-0.3,4.1-1.2c1-1.2,1.5-2.7,1.4-4.2c0-2.3,0.3-4.6,0.9-6.8c0.6-1.5,1.5-2.8,2.6-3.9
				c2.3-2.3,5.5-3.4,9.7-3.4L171.9,92.2z"/>
			<path d="M209.1,109.5h-18c-0.3-0.8-0.4-1.7-0.4-2.5c0-1.1,0.2-2.1,0.6-3.1h6c-0.4-2.3-1.8-3.5-4-3.5c-1.4,0-2.8,0.7-3.6,1.9
				c-1,1.4-1.5,3.1-1.4,4.8c-0.1,1.8,0.4,3.5,1.4,5c0.8,1.2,2.1,1.9,3.5,1.9c1.3-0.1,2.6-0.7,3.4-1.8l6.8,8.1
				c-3,2.4-6.7,3.7-10.5,3.7c-4.4,0.1-8.7-1.6-11.8-4.7c-6.4-6.5-6.4-17,0-23.5c3.2-3.2,7.5-4.9,12-4.8c8.8-0.1,16.1,6.9,16.2,15.7
				c0,0.2,0,0.3,0,0.5C209.2,107.8,209.2,108.5,209.1,109.5z"/>
			<path class="st1" d="M102.9,16.2c-0.8-2.6,0-5.5,1.9-7.4C104.8,8.8,100.5,10.6,102.9,16.2z"/>
			<path class="st1" d="M126.3,15.8c-0.1-1.3-0.6-2.6-1.5-3.6c0.2-2.1-0.7-4.1-2.4-5.2c0.1-0.6,0.1-1.1,0-1.7
				c-0.5-1.8-1.6-3.3-3.2-4.3c-1.9-1.3-4.3-1.4-6.3-0.2c-0.8,0.4-1.6,1-2.2,1.7c-0.7-0.7-1.5-1.2-2.4-1.6c-2.1-1.2-4.6-1.1-6.6,0.2
				C100,2,98.8,3.5,98.3,5.3c-0.1,0.6-0.1,1.1,0,1.7c-1.8,1.1-2.7,3.1-2.5,5.2c-0.9,1-1.5,2.3-1.6,3.6c0,1.3,0.5,2.6,1.5,3.5
				c-0.3,1.8,0,3.7,0.8,5.3c0.9,1.7,2.5,2.9,4.4,3.4c0.5,1.5,1.6,2.7,3,3.3c0.3,0.8,0.8,1.5,1.5,1.9c0.8,0.6,1.8,0.8,2.8,0.8
				c0.8,0,1.7-0.1,2.5-0.4c0.8,0.3,1.6,0.4,2.4,0.4c0.9,0,1.9-0.3,2.6-0.8c0.6-0.5,1.1-1.2,1.4-1.9c1.4-0.7,2.4-1.9,2.9-3.3
				c1.8-0.5,3.4-1.7,4.2-3.4c0.8-1.7,1-3.5,0.8-5.3C125.8,18.4,126.3,17.1,126.3,15.8z M109.8,7.3L109.8,7.3c0,0-0.9,2.7-2.9,1.7
				c0,0,1.6,1.2,2.9,0v9.3l0,0c0,0-2.8,3.8-5.8,0.6c0,0,2.5,3.6,5.6,1.9l0.2-0.1v4.6c-0.3,0.1-0.6,0.2-0.8,0.4
				c-1.8,1.1-1.1,3.5-1.1,3.5c-0.2-1.3,0.6-2.5,1.9-2.8c0,0,0,0,0,0v5.9c-1.2,0.4-2.5,0.3-3.6-0.3c-0.5-0.3-0.8-0.8-1-1.4l-0.1-0.5
				l-0.5-0.1c-1.1-0.4-2-1.3-2.3-2.5l0,0c0,0,0-4.8,2.9-4.4c0,0-2.8-1-3.8,2.4c-0.1,0.4-0.2,0.7-0.2,1.1c-1.4-0.4-2.7-1.3-3.4-2.6
				c-0.6-1.2-0.8-2.5-0.7-3.9h0.1c2.6,1,3.8-2,3.8-2c-1.3,2.2-3.5,0.9-4.2,0.3c-0.7-0.6-1.1-1.5-1.2-2.4c0.1-1,0.6-1.9,1.3-2.6
				l0.2-0.1c0.2,0.1,0.4,0.2,0.6,0.3c2,0.8,2.8-1.4,2.8-1.4c-1.2,2-3.4-0.1-3.4-0.1l0,0c-0.2-1.6,0.7-3.1,2.2-3.7l0.3-0.1
				c0.2,0.1,0.3,0.2,0.5,0.3c1.6,0.7,2.3-1.1,2.3-1.1c-0.7,1.2-1.8,0.6-2.4,0.2L99.8,7c-0.2-0.4-0.2-0.9-0.1-1.3
				c0.5-1.3,1.4-2.4,2.7-3.1c1.9-1.2,4.4-1.1,6.2,0.4c-0.5,0.4-0.9,0.9-1.1,1.5c0.3-0.6,0.9-1,1.6-1c0.2,0.2,0.4,0.4,0.6,0.6V7.3z
				 M123.8,18.3c-0.7,0.6-2.7,2-4-0.3c0,0,1.2,3,3.7,2h0.1c0.1,1.3-0.1,2.7-0.6,3.9c-0.7,1.3-1.8,2.2-3.2,2.6
				c-0.1-0.4-0.1-0.7-0.2-1.1c-0.9-3.4-3.6-2.4-3.6-2.4c2.8-0.3,2.7,4.4,2.7,4.4l0,0c-0.3,1.1-1.2,2-2.2,2.5l-0.5,0.1l-0.1,0.5
				c-0.1,0.6-0.5,1-0.9,1.4c-1,0.6-2.3,0.7-3.4,0.3v-6c1.3,0.3,2.1,1.5,1.8,2.8c0,0,0.7-2.4-1-3.5c-0.2-0.2-0.5-0.3-0.8-0.4v-4.5
				c0.1,0,0.1,0.1,0.2,0.1c2.9,1.7,5.3-1.9,5.3-1.9c-2.9,3.2-5.5-0.6-5.5-0.6l0,0V9c1.2,1.2,2.8,0,2.8,0c-2,1-2.8-1.7-2.8-1.7l0,0
				V3.9c0.2-0.2,0.4-0.4,0.6-0.6c0.7,0,1.3,0.4,1.6,1c-0.2-0.6-0.5-1.1-1-1.5c1.7-1.4,4.1-1.6,5.9-0.4c1.2,0.7,2.1,1.8,2.5,3.1
				c0.1,0.4,0.1,0.9-0.1,1.3l-0.3,0.6c-0.5,0.4-1.6,1-2.3-0.2c0,0,0.6,1.8,2.2,1.1c0.2-0.1,0.3-0.2,0.5-0.3l0.3,0.1
				c1.4,0.6,2.3,2.1,2.1,3.7l0,0c0,0-2.1,2.1-3.2,0.1c0,0,0.8,2.2,2.7,1.4c0.2-0.1,0.4-0.2,0.6-0.3l0.2,0.1c0.7,0.7,1.2,1.6,1.2,2.6
				C124.9,16.8,124.5,17.7,123.8,18.3L123.8,18.3z"/>
			<path class="st1" d="M116.2,8.8c3.1,3.1,1.8,7.4,1.8,7.4C120.2,10.6,116.2,8.8,116.2,8.8z"/>
		</g>
	</g>
</g>
</svg>
