<svg id="Layer_1" data-name="Layer 1" xmlns="http://www.w3.org/2000/svg" viewBox="0 0 209.31 124.59"><defs><style>.cls-1{fill:#fff;}.cls-2{fill:#fc5185;}</style></defs><path class="cls-1" d="M581,351.81h15.7c9.3,0,14,3.7,14,11a11.15,11.15,0,0,1-4.8,9.1c4.6,2,7,5.6,7,10.8a11.64,11.64,0,0,1-4.1,9.4,10,10,0,0,1-4.3,2.3,25.61,25.61,0,0,1-6.1.7h-2.5V384h2.2a5.14,5.14,0,0,0,2.7-.5,1.78,1.78,0,0,0,.8-1.7c0-1.4-1.1-2.1-3.2-2.1h-2.5v-11.6q3.6,0,3.6-2.4c0-1.6-1.1-2.3-3.2-2.3h-2.4v31.7H581Z" transform="translate(-578.43 -321.67)"/><path class="cls-1" d="M636.43,363.26V376a4,4,0,0,0-2-.7c-2,0-3,1.7-3,5v15h-12v-17.4c0-4.6,1.17-8.2,3.71-10.9a12.53,12.53,0,0,1,9.77-4.1A13.93,13.93,0,0,1,636.43,363.26Z" transform="translate(-578.43 -321.67)"/><path class="cls-1" d="M660.24,383.21v12.3a24.77,24.77,0,0,1-2.7.3,16.64,16.64,0,0,1-11.9-4.7,16,16,0,0,1-4.8-11.8,16.46,16.46,0,0,1,16.3-16.5h.2c5.1,0,9.2,1.5,12.1,4.5s4.4,7.1,4.4,12.3v15.5h-11.7v-14.6a6.34,6.34,0,0,0-1.2-4,4.09,4.09,0,0,0-3.3-1.5,4.64,4.64,0,0,0-4.6,4.6,4.27,4.27,0,0,0,4.05,4.49h.25A4.84,4.84,0,0,0,660.24,383.21Z" transform="translate(-578.43 -321.67)"/><path class="cls-1" d="M695,363.51v31.6h-11.9v-31.6Z" transform="translate(-578.43 -321.67)"/><path class="cls-1" d="M732.54,395.11h-11.9v-17.9c0-1.8-.8-2.7-2.2-2.7s-2.2.9-2.2,2.7v17.9h-11.9v-17.6a14.4,14.4,0,0,1,4.1-10.4,14.24,14.24,0,0,1,20.14-.17l.06.07.8.8c2.1,2.6,3.2,6.1,3.2,10.7Z" transform="translate(-578.43 -321.67)"/><path class="cls-1" d="M610.34,423.91l13.5.3q-1.35,10.5-7.2,16.2c-3.9,3.8-9.1,5.7-15.5,5.7a21.89,21.89,0,0,1-16.2-6.5,21.64,21.64,0,0,1-6.5-16.1,22.23,22.23,0,0,1,6.7-16.3,22.85,22.85,0,0,1,16.3-6.5,21.39,21.39,0,0,1,16,6.5c3,3,5.1,7.2,6.3,12.5l-13.8.9c-1.5-4.7-4.5-7.1-8.8-7.1a9,9,0,0,0-6.8,2.8,10.29,10.29,0,0,0-2.7,7.3,10,10,0,0,0,2.6,7,9.69,9.69,0,0,0,13.2.4A11.29,11.29,0,0,0,610.34,423.91Z" transform="translate(-578.43 -321.67)"/><path class="cls-1" d="M646.34,412.81a15.46,15.46,0,0,1,11.5,4.8,16.42,16.42,0,0,1,0,23.2h0a16.78,16.78,0,0,1-23.5,0,16.5,16.5,0,0,1-.2-23.2l.2-.2A17,17,0,0,1,646.34,412.81Zm-.3,11.7a4.28,4.28,0,0,0-3.2,1.4,5,5,0,0,0,0,6.8,4.35,4.35,0,0,0,3.2,1.4,4.75,4.75,0,0,0,3.3-1.4,5,5,0,0,0,0-6.8A4.67,4.67,0,0,0,646,424.51Z" transform="translate(-578.43 -321.67)"/><path class="cls-1" d="M669.94,413.91h11.9v17.9c0,1.8.8,2.7,2.2,2.7s2.2-.9,2.2-2.7v-17.9h11.9v17.7A14.43,14.43,0,0,1,694,442a14.25,14.25,0,0,1-20.14.16l-.06-.06-.8-.8c-2.1-2.6-3.2-6.1-3.2-10.7v-16.7Z" transform="translate(-578.43 -321.67)"/><path class="cls-1" d="M724.64,413.11v12.7a4.57,4.57,0,0,0-2.2-.7c-2.2,0-3.2,1.7-3.2,5v15h-11.9v-17.3c0-4.6,1.2-8.2,3.8-10.9a13,13,0,0,1,10-4.1Z" transform="translate(-578.43 -321.67)"/><path class="cls-1" d="M750.34,413.91v12.5c-1.7,0-2.8.3-3.4.9a6.29,6.29,0,0,0-1.2,3.7c-.6,6.1-2.9,10.4-7.1,13-2.2,1.3-5.4,2-9.5,2h-1.7v-12.7h.5a4.69,4.69,0,0,0,5.5-5.4,26,26,0,0,1,.9-6.8,11.41,11.41,0,0,1,2.6-3.9c2.3-2.3,5.5-3.4,9.7-3.4Z" transform="translate(-578.43 -321.67)"/><path class="cls-1" d="M787.54,431.21h-18a7.12,7.12,0,0,1-.4-2.5,8,8,0,0,1,.6-3.1h6a3.77,3.77,0,0,0-4-3.5,4.35,4.35,0,0,0-3.6,1.9,7.47,7.47,0,0,0-1.4,4.8,8.1,8.1,0,0,0,1.4,5,4.21,4.21,0,0,0,3.5,1.9,4.65,4.65,0,0,0,3.4-1.8l6.8,8.1a16.84,16.84,0,0,1-10.5,3.7,16.25,16.25,0,0,1-11.8-4.7,16.78,16.78,0,0,1,0-23.5,16.33,16.33,0,0,1,12-4.8,16,16,0,0,1,16.2,15.7v.5C787.64,429.51,787.64,430.21,787.54,431.21Z" transform="translate(-578.43 -321.67)"/><path class="cls-2" d="M681.34,337.91a7.48,7.48,0,0,1,1.9-7.4S678.94,332.31,681.34,337.91Z" transform="translate(-578.43 -321.67)"/><path class="cls-2" d="M704.74,337.51a6.06,6.06,0,0,0-1.5-3.6,5.5,5.5,0,0,0-2.4-5.2,4.85,4.85,0,0,0,0-1.7,7.32,7.32,0,0,0-3.2-4.3,5.75,5.75,0,0,0-6.3-.2,7,7,0,0,0-2.2,1.7,7.7,7.7,0,0,0-2.4-1.6,6.26,6.26,0,0,0-6.6.2,6.72,6.72,0,0,0-3.4,4.2,4.85,4.85,0,0,0,0,1.7,5.36,5.36,0,0,0-2.5,5.2,6.18,6.18,0,0,0-1.6,3.6,4.71,4.71,0,0,0,1.5,3.5,8.82,8.82,0,0,0,.8,5.3,6.9,6.9,0,0,0,4.4,3.4,5.47,5.47,0,0,0,3,3.3,3.57,3.57,0,0,0,1.5,1.9,4.63,4.63,0,0,0,2.8.8,7.61,7.61,0,0,0,2.5-.4,7,7,0,0,0,2.4.4,4.82,4.82,0,0,0,2.6-.8,5.37,5.37,0,0,0,1.4-1.9,5.92,5.92,0,0,0,2.9-3.3,6.57,6.57,0,0,0,4.2-3.4,9.77,9.77,0,0,0,.8-5.3A5.43,5.43,0,0,0,704.74,337.51Zm-16.5-8.5h0s-.9,2.7-2.9,1.7a2.37,2.37,0,0,0,2.9,0V340h0s-2.8,3.8-5.8.6c0,0,2.5,3.6,5.6,1.9l.2-.1V347a1.83,1.83,0,0,0-.8.4c-1.8,1.1-1.1,3.5-1.1,3.5a2.46,2.46,0,0,1,1.9-2.8h0V354a4.56,4.56,0,0,1-3.6-.3,2.4,2.4,0,0,1-1-1.4l-.1-.5-.5-.1a3.61,3.61,0,0,1-2.3-2.5h0s0-4.8,2.9-4.4c0,0-2.8-1-3.8,2.4a4,4,0,0,0-.2,1.1,5.57,5.57,0,0,1-3.4-2.6,7.31,7.31,0,0,1-.7-3.9h.1c2.6,1,3.8-2,3.8-2-1.3,2.2-3.5.9-4.2.3a3.68,3.68,0,0,1-1.2-2.4,4.32,4.32,0,0,1,1.3-2.6l.2-.1.6.3c2,.8,2.8-1.4,2.8-1.4-1.2,2-3.4-.1-3.4-.1h0a3.49,3.49,0,0,1,2.2-3.7l.3-.1c.2.1.3.2.5.3,1.6.7,2.3-1.1,2.3-1.1-.7,1.2-1.8.6-2.4.2l-.2-.7a2,2,0,0,1-.1-1.3,5.79,5.79,0,0,1,2.7-3.1,5.26,5.26,0,0,1,6.2.4,3.17,3.17,0,0,0-1.1,1.5,1.77,1.77,0,0,1,1.6-1l.6.6V329Zm14,11c-.7.6-2.7,2-4-.3,0,0,1.2,3,3.7,2h.1a8.67,8.67,0,0,1-.6,3.9,5.2,5.2,0,0,1-3.2,2.6c-.1-.4-.1-.7-.2-1.1-.9-3.4-3.6-2.4-3.6-2.4,2.8-.3,2.7,4.4,2.7,4.4h0a4.21,4.21,0,0,1-2.2,2.5l-.5.1-.1.5a2.67,2.67,0,0,1-.9,1.4,4.1,4.1,0,0,1-3.4.3v-6a2.31,2.31,0,0,1,1.82,2.71.29.29,0,0,0,0,.09s.7-2.4-1-3.5a2,2,0,0,0-.8-.4v-4.5c.1,0,.1.1.2.1,2.9,1.7,5.3-1.9,5.3-1.9-2.9,3.2-5.5-.6-5.5-.6h0v-9.2c1.2,1.2,2.8,0,2.8,0-2,1-2.8-1.7-2.8-1.7h0v-3.4l.6-.6a1.77,1.77,0,0,1,1.6,1,3.09,3.09,0,0,0-1-1.5,5,5,0,0,1,5.9-.4,5.5,5.5,0,0,1,2.5,3.1,2,2,0,0,1-.1,1.3l-.3.6c-.5.4-1.6,1-2.3-.2,0,0,.6,1.8,2.2,1.1.2-.1.3-.2.5-.3l.3.1a3.55,3.55,0,0,1,2.1,3.7h0s-2.1,2.1-3.2.1c0,0,.8,2.2,2.7,1.4l.6-.3.2.1a3.72,3.72,0,0,1,1.2,2.6,4.32,4.32,0,0,1-1.3,2.6Z" transform="translate(-578.43 -321.67)"/><path class="cls-2" d="M694.64,330.51c3.1,3.1,1.8,7.4,1.8,7.4C698.64,332.31,694.64,330.51,694.64,330.51Z" transform="translate(-578.43 -321.67)"/></svg>